PathFileType	4	(X/Y/Z)	results/motion.trc
DataRate	CameraRate	NumFrames	NumMarkers	Units	OrigDataRate	OrigDataStartFrame	OrigNumFrames
13	13	5	20	mm	13	18	88
Frame#	Time	NUI_SKELETON_POSITION_HIP_CENTER	NUI_SKELETON_POSITION_HIP_RIGHT	NUI_SKELETON_POSITION_HIP_LEFT	NUI_SKELETON_POSITION_KNEE_RIGHT	NUI_SKELETON_POSITION_KNEE_LEFT	NUI_SKELETON_POSITION_ANKLE_RIGHT	NUI_SKELETON_POSITION_ANKLE_LEFT	NUI_SKELETON_POSITION_FOOT_RIGHT	NUI_SKELETON_POSITION_FOOT_LEFT	NUI_SKELETON_POSITION_SPINE	NUI_SKELETON_POSITION_SHOULDER_RIGHT	NUI_SKELETON_POSITION_SHOULDER_LEFT	NUI_SKELETON_POSITION_ELBOW_RIGHT	NUI_SKELETON_POSITION_ELBOW_LEFT	NUI_SKELETON_POSITION_WRIST_RIGHT	NUI_SKELETON_POSITION_WRIST_LEFT	NUI_SKELETON_POSITION_HAND_RIGHT	NUI_SKELETON_POSITION_HAND_LEFT	NUI_SKELETON_POSITION_SHOULDER_CENTER	NUI_SKELETON_POSITION_HEAD
X1	Y1	Z1	X2	Y2	Z2	X3	Y3	Z3	X4	Y4	Z4	X5	Y5	Z5	X6	Y6	Z6	X7	Y7	Z7	X8	Y8	Z8	X9	Y9	Z9	X10	Y10	Z10	X11	Y11	Z11	X12	Y12	Z12	X13	Y13	Z13	X14	Y14	Z14	X15	Y15	Z15	X16	Y16	Z16	X17	Y17	Z17	X18	Y18	Z18	X19	Y19	Z19	X20	Y20	Z20	
18	1.752000	-77.653602	728.313029	-82.064867	3.895596	650.009334	-102.173328	-155.206770	648.872554	-79.055548	71.451068	183.612779	-115.907669	-178.537920	191.890806	-41.209936	110.422432	-174.178243	-115.442038	-194.993287	-163.553238	69.164753	139.671534	-239.759326	-186.812639	-243.643641	-239.707291	18.287897	-73.433489	798.798025	-32.492399	86.950809	1072.752118	-90.348005	-271.617830	1070.011139	-22.640705	299.252898	914.304852	-217.298985	-480.442703	870.086432	-3.142357	470.592886	920.263708	-446.959496	-694.095373	769.850135	-81.225872	486.692935	950.048506	-463.164091	-772.229195	765.960693	-115.482330	-88.966429	1191.199422	-52.361727	-115.900561	1362.356901	-84.637880	
19	1.819000	-68.158910	724.597692	-105.498075	12.071341	646.421790	-127.353668	-146.891922	645.654023	-98.878384	74.226171	184.579626	-134.478331	-173.786759	192.016780	-83.558559	108.792782	-173.490703	-131.656170	-194.339558	-163.714647	27.802944	136.939019	-239.511490	-203.160763	-243.428379	-238.918841	-17.046452	-60.645878	795.192540	-58.369875	101.888001	1069.059253	-122.733593	-254.707158	1067.594051	-43.063164	308.151692	915.050685	-253.363132	-458.115906	867.244840	-10.774374	470.365673	915.661573	-491.164684	-672.798157	763.394833	-81.981897	482.573420	947.723210	-510.083675	-755.508900	758.585215	-115.916491	-70.343316	1187.249899	-81.974983	-99.273637	1357.505441	-118.413925	
20	1.919000	-57.481453	721.183956	-129.492283	21.354854	643.038809	-152.835608	-137.393355	642.739058	-119.590282	77.421814	185.176045	-151.926994	-167.953327	191.411480	-126.262188	107.451081	-172.922313	-146.213770	-192.177549	-162.842035	-41.417599	134.574443	-239.330292	-217.738867	-242.249191	-238.439381	-86.583376	-47.064185	791.903913	-84.521532	117.277175	1065.823078	-153.047800	-236.503303	1065.351129	-64.838171	316.776603	914.985180	-284.961700	-436.186492	865.204096	-20.951986	471.330374	908.917546	-528.639317	-650.352478	759.805083	-89.656115	480.431467	942.117631	-550.009012	-726.368308	757.287741	-124.692202	-50.944388	1183.512688	-111.195326	-81.273794	1353.487015	-151.300669	
21	1.969000	-46.109036	718.217611	-153.312922	31.235725	639.986217	-177.521467	-126.987219	640.279591	-141.000986	80.824882	185.666159	-168.097973	-161.513329	189.726278	-167.310238	106.301904	-172.426343	-159.247160	-190.438271	-162.451506	-110.773802	132.492185	-239.192784	-230.696678	-238.533944	-235.364318	-164.164066	-33.217460	789.037287	-110.213757	132.866174	1062.966824	-181.150198	-218.121663	1063.423157	-86.810112	325.242549	913.980544	-312.993288	-415.202647	863.801956	-33.011198	473.525554	900.239110	-561.151505	-629.229844	757.461548	-99.394560	480.013043	934.678733	-585.337639	-696.610928	758.182406	-137.450457	-31.497553	1179.813623	-139.515400	-63.165635	1349.797249	-181.977510	
22	2.018000	-34.340054	715.361595	-177.760124	41.292429	637.040973	-201.618910	-115.924917	638.054252	-164.423466	84.435284	186.037257	-183.336735	-155.068994	188.435197	-209.015131	105.334848	-171.981037	-170.886517	-188.682392	-158.889830	-199.149132	130.676210	-239.075840	-242.232561	-232.753560	-229.942322	-264.419317	-19.818798	786.352158	-136.146784	147.987723	1060.320616	-206.998825	-197.871149	1061.751842	-114.187002	334.287494	910.309732	-338.299751	-393.686771	864.267826	-52.043915	478.575975	884.060979	-588.975668	-605.924726	758.224487	-120.553732	482.081443	920.947492	-614.972591	-663.498759	763.405561	-162.854433	-11.983171	1176.090717	-168.186665	-42.108923	1346.718788	-215.604782	
